/* XPM */
static char *result[] = {
/* columns rows colors chars-per-pixel */
"32 32 109 2 ",
"   c black",
".  c #000100",
"X  c #020801",
"o  c #000907",
"O  c #000014",
"+  c #00111E",
"@  c #37230D",
"#  c #001822",
"$  c #252027",
"%  c #2B2E36",
"&  c #37313A",
"*  c #39333C",
"=  c #440000",
"-  c #4B1F1F",
";  c #50171E",
":  c #7D0012",
">  c #78200D",
",  c #582B27",
"<  c #58393F",
"1  c #652427",
"2  c #3C3745",
"3  c #4A454F",
"4  c #62454D",
"5  c #634A52",
"6  c #60525C",
"7  c #831D11",
"8  c #8D301B",
"9  c #992A20",
"0  c #C62F17",
"q  c #CD3F20",
"w  c #824426",
"e  c #B54825",
"r  c #BB5522",
"t  c #D64617",
"y  c #DC4216",
"u  c #D55D2A",
"i  c #DC7939",
"p  c #F2662C",
"a  c #EE712F",
"s  c #E37233",
"d  c #EF7632",
"f  c #E97437",
"g  c #F57432",
"h  c #FF7931",
"j  c #974044",
"k  c #9D4446",
"l  c #FF8037",
"z  c #FF8038",
"x  c #FF843A",
"c  c #FF853A",
"v  c #FF853B",
"b  c #FF863B",
"n  c #FF863C",
"m  c #FF873D",
"M  c #FF883D",
"N  c #FF883E",
"B  c #FF893E",
"V  c #FF893F",
"C  c #FF8A3F",
"Z  c #FF8B3F",
"A  c #FF8D3D",
"S  c #FF8D3F",
"D  c #E78A44",
"F  c #FF8D41",
"G  c #FD8E42",
"H  c #FC9345",
"J  c #FF9545",
"K  c #FF9645",
"L  c #FF9447",
"P  c #FF9945",
"I  c #FF9B47",
"U  c #FA9E4E",
"Y  c #FF9F4C",
"T  c #FFA048",
"R  c #FEA14F",
"E  c #FFA14F",
"W  c #FFA650",
"Q  c #FEAD58",
"!  c #FFAE58",
"~  c #FFB15B",
"^  c #FDB55E",
"/  c #F9B760",
"(  c #FEBD63",
")  c #FFBE62",
"_  c #FDBF64",
"`  c #FBC266",
"'  c #FEC166",
"]  c #FCC66A",
"[  c #FDC86B",
"{  c #FDCE6E",
"}  c #FFD06E",
"|  c #FCD070",
" . c #FED372",
".. c #FFD573",
"X. c #FDD673",
"o. c #FCD674",
"O. c #FCD774",
"+. c #FED775",
"@. c #FBD976",
"#. c #FCD875",
"$. c #FCD975",
"%. c #FFD976",
"&. c #FBDC78",
"*. c #FADD79",
"=. c #FCDC78",
"-. c #FCDD78",
";. c #FCDE7A",
":. c #FCE07A",
">. c None",
/* pixels */
">.>.>.>.>.>.>.>.>.>.>.>.>.>.>.>.>.>.>.>.>.>.>.>.>.>.>.>.>.>.>.>.",
">.>.>.>.>.>.>.>.>.>.>.>.>.>.>.>.>.>.>.>.>.>.>.>.>.>.>.>.>.>.>.>.",
">.>.>.>.>.>.>.>.>.>.>.>.>.>.>.>.>.>.>.>.>.>.>.>.>.>.>.>.>.>.>.>.",
">.>.>.>.>.>.>.>.>.>.>.>.>.>.>.>.>.>.>.>.>.>.>.>.>.>.>.>.>.>.>.>.",
">.>.>.>.>.>.>.>.>.>.>.>.>.>.>.>.>.>.>.>.>.>.>.>.>.>.>.>.>.>.>.>.",
">.>.>.>.>.>.>.>.>.>.>.>.>.>.>.>.>.>.>.>.>.>.>.>.>.>.>.>.>.>.>.>.",
">.>.>.>.>.>.>.>.>.>.>.>.>.>.>.>.>.>.>.>.>.>.>.>.>.>.>.>.>.>.>.>.",
">.>.>.>.>.>.>.>.>.>.>.>.>.>.>.>.>.>.>.>.>.>.>.>.>.>.>.>.>.>.>.>.",
">.>.>.>.>.>.>.>.>.>.>.>.>.>.>.>.>.>.>.>.>.>.>.>.>.>.>.>.>.>.>.>.",
">.>.>.>.>.>.>.>.>.>.>.>.>.>.>.>.>.>.>.>.>.>.>.>.>.>.>.>.>.>.>.>.",
">.>.>.>.>.>.>.>.>.>.>.>.>.>.>.>.>.>.>.>.>.>.>.>.>.>.>.>.>.>.>.>.",
">.>.>.>.>.>.>.>.>.>.>.>.>.>.>.>.>.>.>.>.>.>.>.>.>.>.>.>.>.>.>.>.",
">.>.>.>.>.>.>.>.>.>.>.>.>.N B >.>.>.>.>.>.>.>.>.>.>.>.>.>.>.>.>.",
">.>.>.>.>.>.>.>.>.>.>.>.>.T M >.>.>.>.>.>.>.>.>.>.>.>.>.>.>.>.>.",
">.>.>.>.>.>.>.>.>.>.>.>.>.B >.>.>.>.>.>.>.>.>.>.>.>.>.>.>.>.>.>.",
">.>.>.>.>.>.>.>.>.>.>.>.>.>.>.>.>.>.>.>.>.>.>.>.>.>.>.>.>.>.>.>.",
">.>.>.>.>.>.>.>.>.>.>.>.>.>.>.>.>.>.>.>.>.>.>.>.>.>.>.>.>.>.>.>.",
">.>.>.>.>.>.>.>.>.>.>.>.>.>.B Z >.>.>.>.>.>.>.>.>.>.>.>.>.>.>.>.",
">.>.>.>.>.>.>.>.>.>.>.>.>.V P x >.>.>.>.>.>.>.>.>.>.>.>.>.>.>.>.",
">.>.>.>.>.>.>.>.>.>.>.>.>.m J R F >.>.>.>.>.>.>.>.>.>.>.>.>.>.>.",
">.>.>.>.>.>.>.>.>.>.>.>.>.>.n E ( Y >.>.>.>.>.>.>.>.>.>.>.>.>.>.",
">.>.>.>.>.>.>.>.>.>.>.>.>.n C v X.' A >.>.>.>.>.>.>.>.>.>.>.>.>.",
">.>.>.>.>.>.>.>.>.>.>.>.z )  .{ :.[ b C >.>.>.>.>.>.>.>.>.>.>.>.",
">.>.>.>.>.>.>.>.>.>.>.>.Z ..;.=.| L b K >.>.>.>.>.>.>.>.>.>.>.>.",
">.>.>.>.>.>.>.>.>.>.>.V h _ -.#.o.^ l S >.>.>.>.>.>.>.>.>.>.>.>.",
">.>.>.>.>.>.>.>.>.>.>.I ! ] =.O.@.&.` W c >.>.>.>.>.>.>.>.>.>.>.",
">.>.>.>.>.>.>.>.>.>.>.>./ +.$.*.=.%.} H >.>.>.>.>.>.>.>.>.>.>.>.",
">.>.>.>.>.>.>.>.>.>.>.r a G U ~ Q D s u 0 > >.>.>.>.>.>.>.>.>.>.",
">.>.>.>.>.>.>.>.>.1 q f i e g d t : w p y = . >.>.>.>.>.>.>.>.>.",
">.>.>.>.>.>.>.>.* % ; O 2 j 8 @ 7 - , 9 k < >.>.>.>.>.>.>.>.>.>.",
">.>.>.>.>.>.>.>.& $   X 5 6 #   >.o   + 3 >.>.>.>.>.>.>.>.>.>.>.",
">.>.>.>.>.>.>.>.>.>.>.>.>.4 >.>.>.>.>.>.>.>.>.>.>.>.>.>.>.>.>.>."
};
