/* XPM */
static char *result[] = {
/* columns rows colors chars-per-pixel */
"32 32 118 2 ",
"   c black",
".  c #000100",
"X  c #000801",
"o  c #060D07",
"O  c #000016",
"+  c #00001A",
"@  c #380000",
"#  c #000520",
"$  c #1B1920",
"%  c #1C2027",
"&  c #3C2E36",
"*  c #37313A",
"=  c #39333C",
"-  c #480014",
";  c #4E101D",
":  c #573315",
">  c #58383F",
",  c #683C2B",
"<  c #3C3745",
"1  c #49444E",
"2  c #5F525C",
"3  c #62454D",
"4  c #634A52",
"5  c #AD0405",
"6  c #982421",
"7  c #844222",
"8  c #9B4724",
"9  c #924C20",
"0  c #A84B2A",
"q  c #AF572A",
"w  c #BC552A",
"e  c #BA5F2D",
"r  c #C05B25",
"t  c #DD5522",
"y  c #DD5B2A",
"u  c #E85C23",
"i  c #DB7638",
"p  c #FF722A",
"a  c #FF772F",
"s  c #ED7935",
"d  c #F37735",
"f  c #FE7D35",
"g  c #F87F38",
"h  c #974145",
"j  c #9F4746",
"k  c #F38037",
"l  c #FF8136",
"z  c #FF8137",
"x  c #F3833E",
"c  c #FB8038",
"v  c #FF8239",
"b  c #FF8339",
"n  c #FF873C",
"m  c #FF893D",
"M  c #FF883E",
"N  c #FF893E",
"B  c #FF893F",
"V  c #FF8C3E",
"C  c #FF8A40",
"Z  c #FD8D41",
"A  c #FF8D41",
"S  c #FF8E40",
"D  c #FF8F40",
"F  c #F69247",
"G  c #FF9143",
"H  c #FF9545",
"J  c #FF9745",
"K  c #FF9C47",
"L  c #FE9749",
"P  c #FE974A",
"I  c #FF9C4A",
"U  c #FF9D4A",
"Y  c #FFA14F",
"T  c #FFA24E",
"R  c #FEA250",
"E  c #F9A453",
"W  c #FEA452",
"Q  c #FDA754",
"!  c #FEA755",
"~  c #FDB05B",
"^  c #FDB25C",
"/  c #FFB55D",
"(  c #FFB85F",
")  c #FFB960",
"_  c #FDBB62",
"`  c #FFBC60",
"'  c #FDBD62",
"]  c #FDC065",
"[  c #FDC367",
"{  c #FFC367",
"}  c #FDC468",
"|  c #FFC568",
" . c #FFC769",
".. c #FFC76A",
"X. c #FFC86A",
"o. c #FFC96B",
"O. c #FDCE6E",
"+. c #FFD171",
"@. c #FCD372",
"#. c #FCD574",
"$. c #FCD674",
"%. c #FCD775",
"&. c #FBD976",
"*. c #FBDB77",
"=. c #FCD875",
"-. c #FCD876",
";. c #FCD976",
":. c #FCDA76",
">. c #FCDA77",
",. c #FCDB77",
"<. c #FBDD79",
"1. c #FADF7A",
"2. c #FCDC78",
"3. c #FCDD78",
"4. c #FCDE79",
"5. c #FCDF79",
"6. c #FCE17A",
"7. c None",
/* pixels */
"7.7.7.7.7.7.7.7.7.7.7.7.7.7.7.7.7.7.7.7.7.7.7.7.7.7.7.7.7.7.7.7.",
"7.7.7.7.7.7.7.7.7.7.7.7.7.7.7.7.7.7.7.7.7.7.7.7.7.7.7.7.7.7.7.7.",
"7.7.7.7.7.7.7.7.7.7.7.7.7.7.7.7.7.7.7.7.7.7.7.7.7.7.7.7.7.7.7.7.",
"7.7.7.7.7.7.7.7.7.7.7.7.7.7.7.7.7.7.7.7.7.7.7.7.7.7.7.7.7.7.7.7.",
"7.7.7.7.7.7.7.7.7.7.7.7.7.7.7.7.7.7.7.7.7.7.7.7.7.7.7.7.7.7.7.7.",
"7.7.7.7.7.7.7.7.7.7.7.7.7.7.7.7.7.7.7.7.7.7.7.7.7.7.7.7.7.7.7.7.",
"7.7.7.7.7.7.7.7.7.7.7.7.7.7.7.7.7.7.7.7.7.7.7.7.7.7.7.7.7.7.7.7.",
"7.7.7.7.7.7.7.7.7.7.7.7.7.7.7.7.7.7.7.7.7.7.7.7.7.7.7.7.7.7.7.7.",
"7.7.7.7.7.7.7.7.7.7.7.7.7.7.7.7.7.7.7.7.7.7.7.7.7.7.7.7.7.7.7.7.",
"7.7.7.7.7.7.7.7.7.7.7.7.7.7.7.7.7.7.7.7.7.7.7.7.7.7.7.7.7.7.7.7.",
"7.7.7.7.7.7.7.7.7.7.7.7.7.7.7.7.7.7.7.7.7.7.7.7.7.7.7.7.7.7.7.7.",
"7.7.7.7.7.7.7.7.7.7.7.7.7.7.M 7.7.7.7.7.7.7.7.7.7.7.7.7.7.7.7.7.",
"7.7.7.7.7.7.7.7.7.7.7.7.7.7.N 7.7.7.7.7.7.7.7.7.7.7.7.7.7.7.7.7.",
"7.7.7.7.7.7.7.7.7.7.7.7.7.7.7.7.7.7.7.7.7.7.7.7.7.7.7.7.7.7.7.7.",
"7.7.7.7.7.7.7.7.7.7.7.7.7.7.7.7.7.7.7.7.7.7.7.7.7.7.7.7.7.7.7.7.",
"7.7.7.7.7.7.7.7.7.7.7.7.7.7.7.7.7.7.7.7.7.7.7.7.7.7.7.7.7.7.7.7.",
"7.7.7.7.7.7.7.7.7.7.7.7.7.D H K m 7.7.7.7.7.7.7.7.7.7.7.7.7.7.7.",
"7.7.7.7.7.7.7.7.7.7.7.7.7.~ } b 7.7.7.7.7.7.7.7.7.7.7.7.7.7.7.7.",
"7.7.7.7.7.7.7.7.7.7.7.7.7.' W 7.7.7.7.7.7.7.7.7.7.7.7.7.7.7.7.7.",
"7.7.7.7.7.7.7.7.7.7.7.7.7.l Y P T A 7.7.7.7.7.7.7.7.7.7.7.7.7.7.",
"7.7.7.7.7.7.7.7.7.7.7.7.7.I ! o.2.X.v 7.7.7.7.7.7.7.7.7.7.7.7.7.",
"7.7.7.7.7.7.7.7.7.7.7.7.7.] ) L 3._ V C 7.7.7.7.7.7.7.7.7.7.7.7.",
"7.7.7.7.7.7.7.7.7.7.7.7.p ..4.O.<.R a B 7.7.7.7.7.7.7.7.7.7.7.7.",
"7.7.7.7.7.7.7.7.7.7.7.A ` ^ $.,.,.[ / G 7.7.7.7.7.7.7.7.7.7.7.7.",
"7.7.7.7.7.7.7.7.7.7.7.z  .#.@.:.-.;.6.( 7.7.7.7.7.7.7.7.7.7.7.7.",
"7.7.7.7.7.7.7.7.7.7.7.7.U >.>.%.=.&.Q J 7.7.7.7.7.7.7.7.7.7.7.7.",
"7.7.7.7.7.7.7.7.7.7.7.7.c | 5.*.1.+.S k 7.7.7.7.7.7.7.7.7.7.7.7.",
"7.7.7.7.7.7.7.7.7.7.7.r s Z E { | F e q d 9 7.7.7.7.7.7.7.7.7.7.",
"7.7.7.7.7.7.7.7.7.6 y x i w f g t 5 7 n u @ X 7.7.7.7.7.7.7.7.7.",
"7.7.7.7.7.7.7.7.= & ; O < h 8 : - $ , 0 j > 7.7.7.7.7.7.7.7.7.7.",
"7.7.7.7.7.7.7.7.* %   . 4 2 #   7.o   + 1 7.7.7.7.7.7.7.7.7.7.7.",
"7.7.7.7.7.7.7.7.7.7.7.7.7.3 7.7.7.7.7.7.7.7.7.7.7.7.7.7.7.7.7.7."
};
