/* XPM */
static char *result[] = {
/* columns rows colors chars-per-pixel */
"32 32 114 2 ",
"   c black",
".  c #000A01",
"X  c #000017",
"o  c #000117",
"O  c #250B04",
"+  c #380000",
"@  c #351D09",
"#  c #000020",
"$  c #001823",
"%  c #142027",
"&  c #35333C",
"*  c #38313A",
"=  c #511016",
"-  c #660006",
";  c #761D0C",
":  c #621B1D",
">  c #482E35",
",  c #58383F",
"<  c #7C402A",
"1  c #343345",
"2  c #4C464F",
"3  c #5E515C",
"4  c #62454D",
"5  c #644A52",
"6  c #81351D",
"7  c #A23023",
"8  c #A23F22",
"9  c #9D4B26",
"0  c #BF5825",
"q  c #B85629",
"w  c #B0582A",
"e  c #BF5D2E",
"r  c #E95E25",
"t  c #C36533",
"y  c #DA6F30",
"u  c #DE7638",
"i  c #EA7130",
"p  c #EE7434",
"a  c #F17335",
"s  c #F17A34",
"d  c #FF7931",
"f  c #FF7A31",
"g  c #FF7F36",
"h  c #994145",
"j  c #9B4645",
"k  c #FF8037",
"l  c #F7863C",
"z  c #F4853F",
"x  c #FF8138",
"c  c #FF8538",
"v  c #FF843A",
"b  c #FF853A",
"n  c #FF853B",
"m  c #FF863A",
"M  c #FF873A",
"N  c #FF873B",
"B  c #FB863C",
"V  c #FF843C",
"C  c #FF863C",
"Z  c #FF893C",
"A  c #FF893D",
"S  c #FF883E",
"D  c #FF893E",
"F  c #FF893F",
"G  c #FF8A3E",
"H  c #FF8B3E",
"J  c #FF8A3F",
"K  c #FF8B3F",
"L  c #E78C43",
"P  c #FE8C40",
"I  c #FF8C40",
"U  c #FF8D40",
"Y  c #FF9140",
"T  c #FF9141",
"R  c #FF9242",
"E  c #FF9346",
"W  c #FF9547",
"Q  c #FE994A",
"!  c #FF9C4B",
"~  c #FF9E4C",
"^  c #FF9E4E",
"/  c #FFA64E",
"(  c #F8A151",
")  c #FEA150",
"_  c #FFA250",
"`  c #FFA550",
"'  c #FFA754",
"]  c #FEAF59",
"[  c #FEB05B",
"{  c #FFB45B",
"}  c #FDB25C",
"|  c #FFB45C",
" . c #FFB75F",
".. c #FDC367",
"X. c #FFC367",
"o. c #FFC567",
"O. c #FDC468",
"+. c #FFC568",
"@. c #FDC66A",
"#. c #FCD070",
"$. c #FCD171",
"%. c #FFD170",
"&. c #FFD271",
"*. c #FCD573",
"=. c #FBD574",
"-. c #FCD774",
";. c #FBDA76",
":. c #FADA77",
">. c #FCD976",
",. c #FCDE79",
"<. c #FCDF7A",
"1. c #FCE17A",
"2. c #FCE07B",
"3. c None",
/* pixels */
"3.3.3.3.3.3.3.3.3.3.3.3.3.3.3.3.3.3.3.3.3.3.3.3.3.3.3.3.3.3.3.3.",
"3.3.3.3.3.3.3.3.3.3.3.3.3.3.3.3.3.3.3.3.3.3.3.3.3.3.3.3.3.3.3.3.",
"3.3.3.3.3.3.3.3.3.3.3.3.3.3.3.3.3.3.3.3.3.3.3.3.3.3.3.3.3.3.3.3.",
"3.3.3.3.3.3.3.3.3.3.3.3.3.3.3.3.3.3.3.3.3.3.3.3.3.3.3.3.3.3.3.3.",
"3.3.3.3.3.3.3.3.3.3.3.3.3.3.3.3.3.3.3.3.3.3.3.3.3.3.3.3.3.3.3.3.",
"3.3.3.3.3.3.3.3.3.3.3.3.3.3.3.3.3.3.3.3.3.3.3.3.3.3.3.3.3.3.3.3.",
"3.3.3.3.3.3.3.3.3.3.3.3.3.3.3.3.3.3.3.3.3.3.3.3.3.3.3.3.3.3.3.3.",
"3.3.3.3.3.3.3.3.3.3.3.3.3.3.3.3.3.3.3.3.3.3.3.3.3.3.3.3.3.3.3.3.",
"3.3.3.3.3.3.3.3.3.3.3.3.3.3.3.3.3.3.3.3.3.3.3.3.3.3.3.3.3.3.3.3.",
"3.3.3.3.3.3.3.3.3.3.3.3.3.3.3.3.3.3.3.3.3.3.3.3.3.3.3.3.3.3.3.3.",
"3.3.3.3.3.3.3.3.3.3.3.3.3.3.3.3.3.3.3.3.3.3.3.3.3.3.3.3.3.3.3.3.",
"3.3.3.3.3.3.3.3.3.3.3.3.3.3.3.3.3.3.3.3.3.3.3.3.3.3.3.3.3.3.3.3.",
"3.3.3.3.3.3.3.3.3.3.3.3.3.3.G 3.3.3.3.3.3.3.3.3.3.3.3.3.3.3.3.3.",
"3.3.3.3.3.3.3.3.3.3.3.3.3.K D 3.F A 3.3.3.3.3.3.3.3.3.3.3.3.3.3.",
"3.3.3.3.3.3.3.3.3.3.3.3.3.D 3.3.3.3.3.3.3.3.3.3.3.3.3.3.3.3.3.3.",
"3.3.3.3.3.3.3.3.3.3.3.3.3.3.3.3.3.3.3.3.3.3.3.3.3.3.3.3.3.3.3.3.",
"3.3.3.3.3.3.3.3.3.3.3.3.C f 3.3.3.3.3.3.3.3.3.3.3.3.3.3.3.3.3.3.",
"3.3.3.3.3.3.3.3.3.3.3.V / X.) Z K S 3.3.3.3.3.3.3.3.3.3.3.3.3.3.",
"3.3.3.3.3.3.3.3.3.3.3.3.^ O.&.P U J 3.3.3.3.3.3.3.3.3.3.3.3.3.3.",
"3.3.3.3.3.3.3.3.3.3.3.3.3.m _ D M n 3.3.3.3.3.3.3.3.3.3.3.3.3.3.",
"3.3.3.3.3.3.3.3.3.3.3.3.K T G I ' W 3.3.3.3.3.3.3.3.3.3.3.3.3.3.",
"3.3.3.3.3.3.3.3.3.3.3.3.v ! -.$.#.| 3.3.3.3.3.3.3.3.3.3.3.3.3.3.",
"3.3.3.3.3.3.3.3.3.3.3.U N ] [ #.@.c K 3.3.3.3.3.3.3.3.3.3.3.3.3.",
"3.3.3.3.3.3.3.3.3.3.3.R C v d ..,.{ x 3.3.3.3.3.3.3.3.3.3.3.3.3.",
"3.3.3.3.3.3.3.3.3.3.3.b ~ Q E *.<.o.g 3.3.3.3.3.3.3.3.3.3.3.3.3.",
"3.3.3.3.3.3.3.3.3.3.3.3.` =.#.>.;.} v 3.3.3.3.3.3.3.3.3.3.3.3.3.",
"3.3.3.3.3.3.3.3.3.3.3.3.i  .1.:.2.%.Y l 3.3.3.3.3.3.3.3.3.3.3.3.",
"3.3.3.3.3.3.3.3.3.3.3.0 y B ( +.X.L w q p ; 3.3.3.3.3.3.3.3.3.3.",
"3.3.3.3.3.3.3.3.3.7 a z u e k s 8 - 6 H r + . 3.3.3.3.3.3.3.3.3.",
"3.3.3.3.3.3.3.3.& > : o 1 j 9 @ = $ < t h , 3.3.3.3.3.3.3.3.3.3.",
"3.3.3.3.3.3.3.3.* %     5 3 #   3.O   X 2 3.3.3.3.3.3.3.3.3.3.3.",
"3.3.3.3.3.3.3.3.3.3.3.3.3.4 3.3.3.3.3.3.3.3.3.3.3.3.3.3.3.3.3.3."
};
