/* XPM */
static char *result[] = {
/* columns rows colors chars-per-pixel */
"32 32 107 2 ",
"   c black",
".  c #00000E",
"X  c #1F0D06",
"o  c #000018",
"O  c #140C18",
"+  c #000020",
"@  c #001721",
"#  c #212027",
"$  c #332D36",
"%  c #37313A",
"&  c #38333C",
"*  c #490500",
"=  c #551E1F",
"-  c #7B1D13",
";  c #56270F",
":  c #7E1D24",
">  c #59393F",
",  c #3A3545",
"<  c #4B454F",
"1  c #5E505B",
"2  c #62454D",
"3  c #634A52",
"4  c #D22806",
"5  c #904A1F",
"6  c #834A2E",
"7  c #904C27",
"8  c #9D4C26",
"9  c #BF5C2C",
"0  c #C24C20",
"q  c #C05428",
"w  c #D75126",
"e  c #DB5526",
"r  c #CD692C",
"t  c #C16131",
"y  c #C46A33",
"u  c #D97436",
"i  c #EB7E3C",
"p  c #FB7533",
"a  c #F87933",
"s  c #FE7E36",
"d  c #9B4446",
"f  c #9B4846",
"g  c #FF8237",
"h  c #F9833A",
"j  c #FA843A",
"k  c #FF8438",
"l  c #FF863A",
"z  c #FF863B",
"x  c #FF873C",
"c  c #FD873E",
"v  c #FF893C",
"b  c #FF883D",
"n  c #FF883E",
"m  c #FF893E",
"M  c #FF893F",
"N  c #FE8A3F",
"B  c #FF8A3F",
"V  c #FF8B3F",
"C  c #FF8D3D",
"Z  c #FF8C41",
"A  c #FF8F41",
"S  c #FF8D42",
"D  c #E39348",
"F  c #FF9242",
"G  c #FF9442",
"H  c #FF9A46",
"J  c #FE9648",
"K  c #FF9A4B",
"L  c #FB9A4C",
"P  c #FE9E4E",
"I  c #FFA44A",
"U  c #FFA34C",
"Y  c #FDA653",
"T  c #FFA652",
"R  c #FEAA55",
"E  c #F8AC58",
"W  c #FDAD59",
"Q  c #FEAE58",
"!  c #FFAF59",
"~  c #FDB05A",
"^  c #FEB05A",
"/  c #FFB05A",
"(  c #FFB05B",
")  c #FFB45D",
"_  c #FDB65E",
"`  c #FDC367",
"'  c #FFC769",
"]  c #FCCF6F",
"[  c #FFCF6E",
"{  c #FDD170",
"}  c #FCD271",
"|  c #FBD775",
" . c #FCD775",
".. c #FBDA77",
"X. c #FCD875",
"o. c #FCD976",
"O. c #FCDB77",
"+. c #FADC78",
"@. c #FBDC78",
"#. c #FCDC78",
"$. c #FCDD78",
"%. c #FCDD79",
"&. c #FCDE79",
"*. c #FFDE78",
"=. c #FFDF78",
"-. c #FDDF7A",
";. c None",
/* pixels */
";.;.;.;.;.;.;.;.;.;.;.;.;.;.;.;.;.;.;.;.;.;.;.;.;.;.;.;.;.;.;.;.",
";.;.;.;.;.;.;.;.;.;.;.;.;.;.;.;.;.;.;.;.;.;.;.;.;.;.;.;.;.;.;.;.",
";.;.;.;.;.;.;.;.;.;.;.;.;.;.;.;.;.;.;.;.;.;.;.;.;.;.;.;.;.;.;.;.",
";.;.;.;.;.;.;.;.;.;.;.;.;.;.;.;.;.;.;.;.;.;.;.;.;.;.;.;.;.;.;.;.",
";.;.;.;.;.;.;.;.;.;.;.;.;.;.;.;.;.;.;.;.;.;.;.;.;.;.;.;.;.;.;.;.",
";.;.;.;.;.;.;.;.;.;.;.;.;.;.;.;.;.;.;.;.;.;.;.;.;.;.;.;.;.;.;.;.",
";.;.;.;.;.;.;.;.;.;.;.;.;.;.;.;.;.;.;.;.;.;.;.;.;.;.;.;.;.;.;.;.",
";.;.;.;.;.;.;.;.;.;.;.;.;.;.;.;.;.;.;.;.;.;.;.;.;.;.;.;.;.;.;.;.",
";.;.;.;.;.;.;.;.;.;.;.;.;.;.;.;.;.;.;.;.;.;.;.;.;.;.;.;.;.;.;.;.",
";.;.;.;.;.;.;.;.;.;.;.;.;.;.;.;.;.;.;.;.;.;.;.;.;.;.;.;.;.;.;.;.",
";.;.;.;.;.;.;.;.;.;.;.;.;.;.;.;.;.;.;.;.;.;.;.;.;.;.;.;.;.;.;.;.",
";.;.;.;.;.;.;.;.;.;.;.;.;.;.;.;.;.;.;.;.;.;.;.;.;.;.;.;.;.;.;.;.",
";.;.;.;.;.;.;.;.;.;.;.;.;.;.F ;.n ;.;.;.;.;.;.;.;.;.;.;.;.;.;.;.",
";.;.;.;.;.;.;.;.;.;.;.;.;.;.;.;.;.;.;.;.;.;.;.;.;.;.;.;.;.;.;.;.",
";.;.;.;.;.;.;.;.;.;.;.;.;.m ;.;.;.;.;.;.;.;.;.;.;.;.;.;.;.;.;.;.",
";.;.;.;.;.;.;.;.;.;.;.;.I m b ;.;.;.;.;.;.;.;.;.;.;.;.;.;.;.;.;.",
";.;.;.;.;.;.;.;.;.;.;.;.M ;.;.m ;.;.;.;.;.;.;.;.;.;.;.;.;.;.;.;.",
";.;.;.;.;.;.;.;.;.;.;.;.;.;.V H B ;.;.;.;.;.;.;.;.;.;.;.;.;.;.;.",
";.;.;.;.;.;.;.;.;.;.;.;.;.B A A ;.;.;.;.;.;.;.;.;.;.;.;.;.;.;.;.",
";.;.;.;.;.;.;.;.;.;.;.;.;.z k m x ;.;.;.;.;.;.;.;.;.;.;.;.;.;.;.",
";.;.;.;.;.;.;.;.;.;.;.;.x J ^ S ( U ;.;.;.;.;.;.;.;.;.;.;.;.;.;.",
";.;.;.;.;.;.;.;.;.;.;.;.C Q ` R ] K ;.;.;.;.;.;.;.;.;.;.;.;.;.;.",
";.;.;.;.;.;.;.;.;.;.;.;.x b b { &.T ;.;.;.;.;.;.;.;.;.;.;.;.;.;.",
";.;.;.;.;.;.;.;.;.;.;.;.P [ _ o.$./ l Z ;.;.;.;.;.;.;.;.;.;.;.;.",
";.;.;.;.;.;.;.;.;.;.;.;.K =.%.X.O.} V G V ;.;.;.;.;.;.;.;.;.;.;.",
";.;.;.;.;.;.;.;.;.;.;.;.g Y .. .| @.W v N ;.;.;.;.;.;.;.;.;.;.;.",
";.;.;.;.;.;.;.;.;.;.;.c x ) -.+.#.*.' h ;.;.;.;.;.;.;.;.;.;.;.;.",
";.;.;.;.;.;.;.;.;.;.;.r j L E ! ~ D y 9 e 5 ;.;.;.;.;.;.;.;.;.;.",
";.;.;.;.;.;.;.;.;.: w i u q s a 0 . 7 p 4 *   ;.;.;.;.;.;.;.;.;.",
";.;.;.;.;.;.;.;.& $ = O , f 8 ; - @ 6 t d > ;.;.;.;.;.;.;.;.;.;.",
";.;.;.;.;.;.;.;.% #     3 1 +   ;.X   o < ;.;.;.;.;.;.;.;.;.;.;.",
";.;.;.;.;.;.;.;.;.;.;.;.;.2 ;.;.;.;.;.;.;.;.;.;.;.;.;.;.;.;.;.;."
};
