/* XPM */
static char *_8c80ef17f7d43838224ad5b2c931831lBhHCXyy5xhnB0Qu[] = {
/* columns rows colors chars-per-pixel */
"32 32 172 2 ",
"   c None",
".  c black",
"X  c #153940",
"o  c #005962",
"O  c #5E6668",
"+  c #B13D3A",
"@  c #E13F21",
"#  c #B35406",
"$  c #BC5616",
"%  c #B55E2A",
"&  c #AA5E3B",
"*  c #BE543F",
"=  c #AE643D",
"-  c #BC6636",
";  c #B5653D",
":  c #BB663C",
">  c #BF693A",
",  c #B56438",
"<  c #BC7030",
"1  c #CC5E01",
"2  c #D76100",
"3  c #DA6700",
"4  c #DC6F1C",
"5  c #D76D1B",
"6  c #DE701C",
"7  c #E36300",
"8  c #E36B00",
"9  c #ED6D01",
"0  c #F26D00",
"q  c #E77000",
"w  c #EE7300",
"e  c #EB760F",
"r  c #F27401",
"t  c #F97800",
"y  c #FF780C",
"u  c #E46D1B",
"i  c #EC7512",
"p  c #E4721C",
"a  c #EB761D",
"s  c #EE781E",
"d  c #E27017",
"f  c #F47915",
"g  c #F27A1C",
"h  c #FC7E1E",
"j  c #F37614",
"k  c #C65933",
"l  c #E04522",
"z  c #E14E22",
"x  c #E35924",
"c  c #FF5927",
"v  c #FA5626",
"b  c #CA6A2B",
"n  c #DA6E26",
"m  c #D56F2C",
"M  c #DB6A2C",
"N  c #D26B20",
"B  c #DB722D",
"V  c #DC7024",
"C  c #C96B34",
"Z  c #C36C3D",
"A  c #CE6C3B",
"S  c #C96535",
"D  c #D06E34",
"F  c #DA7332",
"G  c #D9753A",
"H  c #EB6B27",
"J  c #E57623",
"K  c #EB7721",
"L  c #ED7922",
"P  c #EE7B2A",
"I  c #E67A28",
"U  c #F37C24",
"Y  c #FB7F20",
"T  c #F37C2A",
"R  c #E87931",
"E  c #924E4F",
"W  c #B75047",
"Q  c #B9545E",
"!  c #AD6342",
"~  c #B56741",
"^  c #B16845",
"/  c #A56A5F",
"(  c #AD5C62",
")  c #BD5960",
"_  c #C25559",
"`  c #C46D42",
"'  c #C86E41",
"]  c #CB7042",
"[  c #DA7B47",
"{  c #C5666E",
"}  c #D56B6C",
"|  c #DA7660",
" . c #C87C76",
".. c #D87A74",
"X. c #BC843B",
"o. c #BE9436",
"O. c #FF811C",
"+. c #D88628",
"@. c #C49235",
"#. c #C59F36",
"$. c #E8832D",
"%. c #FE8121",
"&. c #F78029",
"*. c #F68323",
"=. c #EA9728",
"-. c #F58B34",
";. c #F9A934",
":. c #DCCA3E",
">. c #D8C83D",
",. c #FCCC3B",
"<. c #FCC539",
"1. c #FED33D",
"2. c #FFDB3E",
"3. c #B9A440",
"4. c #CB8547",
"5. c #DD9A49",
"6. c #D7865F",
"7. c #EE8243",
"8. c #E89845",
"9. c #E78858",
"0. c #F28D5A",
"q. c #D0B048",
"w. c #E6A24E",
"e. c #FBAA4F",
"r. c #E7A650",
"t. c #E2B15A",
"y. c #DF8861",
"u. c #D08766",
"i. c #DB916F",
"p. c #D9857C",
"a. c #DB977C",
"s. c #E18961",
"d. c #E9BE63",
"f. c #E7BC62",
"g. c #D8C744",
"h. c #E0CE40",
"j. c #EBD849",
"k. c #E8D548",
"l. c #E4D054",
"z. c #ECDB6C",
"x. c #E9D466",
"c. c #EDD975",
"v. c #ECD372",
"b. c #F3DF79",
"n. c #F2DE76",
"m. c #F5E27C",
"M. c #F8E67F",
"N. c #F4E377",
"B. c #55898D",
"V. c #6A8C8D",
"C. c #798486",
"Z. c #BE8987",
"A. c #B99787",
"S. c #B9A284",
"D. c #9CA7AA",
"F. c #CD9687",
"G. c #D79A84",
"H. c #E18481",
"J. c #E1918E",
"K. c #E09090",
"L. c #D9A695",
"P. c #D2B3AA",
"I. c #F5E680",
"U. c #D5C2BC",
"Y. c #F0C8BB",
"T. c #B5C5C8",
"R. c #BED2CC",
"E. c #C2CDC7",
"W. c #DDD7D2",
"Q. c #EDDCD4",
"!. c #D4E9E6",
"~. c #E9FCF7",
/* pixels */
"                                                                ",
"                            p p a a a 6                         ",
"                        4 O.Y U g g g %.p                       ",
"                      F %.U s s K s s L %.p                     ",
"            4 p p     8 i K s s s s P r g %.                    ",
"            a Y %.J   Y.9.r L s s L 7 [ U U -                   ",
"            a s L t y.D.F j K s P 7 P.T.a.r ;                   ",
"      x       h L 9 G.X 2 T K a T 1 C.O U.T :                   ",
"    I c x     a T 9 L.V.8 U s s h % . . W.7.,                   ",
"  1.1.z v     4 %.8 9.y.w L s K f > o B.Q.8 ;                   ",
"  1.<.$.H l     p I 9 r I s K s s i Z u.0.u !                   ",
"  1.,.1.,.;.l   n r y.9.r U f s a 7.U 9 r G &                   ",
"  1.2.1.2.,.l     8 0./ $ b * W + Z.( k I :                     ",
"      1.2.;.        r 3 E { Q Q Q _ ) V C C s a a p             ",
"        =.          - T n p.K.H.H.K.| b C f U g g %.%.s a 6     ",
"        p u           : 0 A  .} ..F.C b s a s s s s s s L %.    ",
"        a Y           7 -.t.q.#.< 1 I g g g h g O.%.%.*.Y s     ",
"        6 %.K         e.m.M.M.m.c.8.0 K B B m n V p p p p 5     ",
"          &.g Y J   8.M.M.b.m.b.I.c.R f A                       ",
"          @.U g O.g v.M.b.b.b.b.m.I.d.9 &.                      ",
"            @.P 0 5.I.m.m.b.m.M.m.m.b.$.O.                      ",
"              3.N f.I.b.m.b.m.b.m.b.M.8.y                       ",
"              +.i d.m.m.b.b.m.m.m.b.m.r.0 J                     ",
"            6 %.0 r.I.m.I.m.m.m.m.b.m.8.9 &.g                   ",
"            %.s s L v.z.l.x.z.n.m.I.c.J s s g s                 ",
"          p %.f L M X.>.:.>.:.g.l.z.w.9 U s K %.d               ",
"          > R D - ~ ~ X.g.k.j.j.h.@.S F K s g Y C               ",
"        i.1 ! ; : : :               = ; : C D Z                 ",
"      !.Q.w G ; : ]                   ` : ; ~ % ^ E.            ",
"        R.S.4.' Z ;                   : ' ` ` - W.~.            ",
"                                        = ~ # A.!.              ",
"                                                                "
};
