/* XPM */
static char *_15ddf52c9664c22dcff233c3e0619b0xdfyjw0cFhW9VIFZ[] = {
/* columns rows colors chars-per-pixel */
"32 32 65 1 ",
"  c None",
". c #6D0012",
"X c #74111E",
"o c #80390C",
"O c #803518",
"+ c #8A4413",
"@ c #AA4D13",
"# c #9C5424",
"$ c #A04E29",
"% c #A15023",
"& c #A65928",
"* c #B5562F",
"= c #B36326",
"- c #B56C34",
"; c #BC6A34",
": c #C9683B",
"> c #C47337",
", c #CA7035",
"< c #C87B3E",
"1 c #CC7D43",
"2 c #EA9500",
"3 c #DA892D",
"4 c #CC873D",
"5 c #D7853F",
"6 c #CD8443",
"7 c #D58543",
"8 c #DB8247",
"9 c #DF8F4D",
"0 c #D39345",
"q c #DD9D46",
"w c #DE954A",
"e c #D49D4A",
"r c #C58458",
"t c #E39649",
"y c #D3B057",
"u c #E4A344",
"i c #EBA24E",
"p c #EDA752",
"a c #F9A453",
"s c #F3AB53",
"d c #EDB45D",
"f c #E4BA59",
"g c #F3B354",
"h c #FCB255",
"j c #FDB458",
"k c #FDB261",
"l c #F3C35B",
"z c #FEC45D",
"x c #FDCA5D",
"c c #FFDD57",
"v c #FFDB5C",
"b c #FDC760",
"n c #FFCB62",
"m c #FCCC74",
"M c #FFDB76",
"N c #CEA68A",
"B c #DEBC98",
"V c #F2BB83",
"C c #E3BF90",
"Z c #E1BCA0",
"A c #FCC381",
"S c #FDDA91",
"D c #E2CEB0",
"F c #FFF0BC",
"G c #FFFFD0",
/* pixels */
"                                ",
"                                ",
"                                ",
"                                ",
"                                ",
"                                ",
"                                ",
"                                ",
"                                ",
"                                ",
"              3VN               ",
"             6hnGZ              ",
"             0d2mFr             ",
"            9zfBdMC             ",
"            kvyDAbS@            ",
"            8zfusxc=            ",
"            *iqqtln%            ",
"            o54ewgjX            ",
"             &-17ls.            ",
"             o>:0n<             ",
"              +,pa$             ",
"               #;O              ",
"                                ",
"                                ",
"                                ",
"                                ",
"                                ",
"                                ",
"                                ",
"                                ",
"                                ",
"                                "
};
