/* XPM */
static char *_c2d447eb9734161ad6f71eb5818926186BQ2QGESZro6dSJ[] = {
/* columns rows colors chars-per-pixel */
"32 32 67 1 ",
"  c None",
". c #6D0012",
"X c #74111E",
"o c #813800",
"O c #80390C",
"+ c #803518",
"@ c #8A4413",
"# c #AA4D13",
"$ c #9C5424",
"% c #A04E29",
"& c #A15023",
"* c #A65928",
"= c #B5562F",
"- c #B36326",
"; c #B56C34",
": c #BC6A34",
"> c #C9683B",
", c #C47337",
"< c #CA7035",
"1 c #C87B3E",
"2 c #CC7D43",
"3 c #DF8D27",
"4 c #DA892D",
"5 c #D78F33",
"6 c #EA9829",
"7 c #E0AD2C",
"8 c #FDAD25",
"9 c #EFA937",
"0 c #CD8443",
"q c #CC8B43",
"w c #D58543",
"e c #DB8247",
"r c #D39345",
"t c #D79947",
"y c #DD9D46",
"u c #DE954A",
"i c #DD9B4B",
"p c #C58458",
"a c #E39649",
"s c #DCAA4D",
"d c #E5A54B",
"f c #EBA24E",
"g c #EDA752",
"h c #F9A453",
"j c #F3AB53",
"k c #EBB254",
"l c #E6B854",
"z c #F3B354",
"x c #FCB255",
"c c #FDB458",
"v c #FCC455",
"b c #F3C35B",
"n c #FDCA5D",
"m c #FFDB5C",
"M c #FFCB62",
"N c #FCCC74",
"B c #CEA68A",
"V c #F2BB83",
"C c #E3BF90",
"Z c #D3BFA8",
"A c #E1BCA0",
"S c #FFCA8A",
"D c #FFDC80",
"F c #FDDA91",
"G c #FEE5A6",
"H c #FFF0BC",
"J c #FFFFD0",
/* pixels */
"                                ",
"                                ",
"                                ",
"                                ",
"                                ",
"                                ",
"                                ",
"                                ",
"                                ",
"                                ",
"               BV4              ",
"              AJMx0             ",
"             pHN6k5             ",
"             CD9sCS3            ",
"            #FNx7ZG8            ",
"            -mnjdlve            ",
"            &Mbaiyf=            ",
"            Xczutqwo            ",
"            .jbw2;*             ",
"             1Mr>,O             ",
"             %hg<@              ",
"              +:$               ",
"                                ",
"                                ",
"                                ",
"                                ",
"                                ",
"                                ",
"                                ",
"                                ",
"                                ",
"                                "
};
