/* XPM */
static char *f0e995cb49f24aa6dc5ab600f356d68aMN9WLHNhHaOj16Mp[] = {
/* columns rows colors chars-per-pixel */
"32 32 23 1 ",
"  c None",
". c #823D13",
"X c #8A4413",
"o c #A55B33",
"O c #B66637",
"+ c #BC6A34",
"@ c #D47A3D",
"# c #CF8021",
"$ c #DA9926",
"% c #CC873D",
"& c #D3913F",
"* c #D49D4A",
"= c #E2894A",
"- c #EC8F4F",
"; c #EEBC4C",
": c #EBAE5E",
"> c #FDB458",
", c #FFED5C",
"< c #FFCB62",
"1 c #FFE772",
"2 c #FFFBAC",
"3 c #FFFFD0",
"4 c #FFFFF7",
/* pixels */
"                                ",
"                                ",
"                                ",
"                                ",
"                                ",
"                                ",
"                                ",
"                                ",
"                                ",
"                                ",
"               $$               ",
"              #33#              ",
"              :44:              ",
"              ;22;              ",
"              *,,*              ",
"              &11&              ",
"              %<<%              ",
"              +>>+              ",
"              O--O              ",
"              o==o              ",
"              .@@.              ",
"               XX               ",
"                                ",
"                                ",
"                                ",
"                                ",
"                                ",
"                                ",
"                                ",
"                                ",
"                                ",
"                                "
};
