/* XPM */
static char *_0a91a572f7144f3d1d60fbde640889ewNeC4HbQb4nZIyth[] = {
/* columns rows colors chars-per-pixel */
"32 32 92 1 ",
"  c None",
". c #440000",
"X c #4E0000",
"o c #700003",
"O c #700011",
"+ c #964623",
"@ c #9A5125",
"# c #9D542A",
"$ c #BE5D39",
"% c #A76335",
"& c #BE6336",
"* c #B96934",
"= c #BA7A3B",
"- c #CC6A32",
"; c #C17237",
": c #CB733F",
"> c #BE6344",
", c #CF6E42",
"< c #CC7F46",
"1 c #D27B43",
"2 c #BB833D",
"3 c #EEB100",
"4 c #CC863A",
"5 c #CC8E3D",
"6 c #F0AB39",
"7 c #EDB93A",
"8 c #CF8340",
"9 c #CD8D44",
"0 c #D58F43",
"q c #D18748",
"w c #D98148",
"e c #CF9041",
"r c #D29142",
"t c #DF9D47",
"y c #DB9A4B",
"u c #E69B4C",
"i c #EB9E4E",
"p c #EC9250",
"a c #D1A846",
"s c #DCA74F",
"d c #DAAD4E",
"f c #D1A456",
"g c #DEAF5D",
"h c #ECA245",
"j c #E5A548",
"k c #EBA24E",
"l c #E2B74C",
"z c #E4AC51",
"x c #F4A454",
"c c #F2A952",
"v c #F8AC54",
"b c #E5B255",
"n c #EAB254",
"m c #ECBC51",
"M c #EAB55D",
"N c #FCB257",
"B c #F1B458",
"V c #FCB759",
"C c #FDBB59",
"Z c #E6AE67",
"A c #EAB960",
"S c #E8B972",
"D c #F1CC4B",
"F c #EACC56",
"G c #EDC558",
"H c #E4CD5F",
"J c #FFC45D",
"K c #EBD153",
"L c #FFD55D",
"P c #FFCA64",
"I c #FAD062",
"U c #FFDB64",
"Y c #FED26A",
"T c #FFDD7E",
"R c #FFEB67",
"E c #DD9C81",
"W c #DD9C8B",
"Q c #F3C683",
"! c #FECA84",
"~ c #FFD984",
"^ c #F4C993",
"/ c #FBDC94",
"( c #FFE79C",
") c #E8C5A1",
"_ c #E8C8B0",
"` c #E8DCBB",
"' c #FDE6A6",
"] c #FFF5A9",
"[ c #FFFFAF",
"{ c #FFEFBC",
"} c #FFF0BE",
"| c #FFFFBD",
/* pixels */
"                                ",
"                                ",
"                                ",
"                                ",
"                                ",
"                                ",
"                                ",
"                                ",
"                                ",
"                                ",
"             W)L~_E             ",
"            ^}(UT'{^            ",
"           Q|l6ih3m[g           ",
"          >'dhY94'!7I&          ",
"          f/-PFSZ`]hJe          ",
"          aD,CGAMKRVN5          ",
"          rB:xnjtHUNV2          ",
"          =c$pyq<bPkv%          ",
"          Oks1w##cuzuo          ",
"           #Cy:**1zC#           ",
"            +8uiku0@            ",
"             X#;;#.             ",
"                                ",
"                                ",
"                                ",
"                                ",
"                                ",
"                                ",
"                                ",
"                                ",
"                                ",
"                                "
};
