/* XPM */
static char *result[] = {
/* columns rows colors chars-per-pixel */
"32 32 209 2 ",
"   c black",
".  c #2A2F2A",
"X  c #424842",
"o  c #4A4D4A",
"O  c #4E514D",
"+  c #565A56",
"@  c #595D59",
"#  c #5E625E",
"$  c #606460",
"%  c #606462",
"&  c #636563",
"*  c #636763",
"=  c #656765",
"-  c #676967",
";  c #686A66",
":  c #6B6B67",
">  c #696D69",
",  c #6B6F6B",
"<  c #6C6E6A",
"1  c #6C6E6C",
"2  c #6E6F6E",
"3  c #6D706D",
"4  c #6E706E",
"5  c #6E716E",
"6  c #6F716E",
"7  c #6F706F",
"8  c #6F716F",
"9  c #6F736F",
"0  c #727272",
"q  c #757773",
"w  c #747674",
"e  c #747874",
"r  c #767876",
"t  c #787A76",
"y  c #787B78",
"u  c #7B7D7B",
"i  c #7C7D7B",
"p  c #7F807F",
"a  c #808180",
"s  c #808380",
"d  c #818281",
"f  c #828482",
"g  c #838683",
"h  c #848684",
"j  c #858785",
"k  c #868986",
"l  c #8B8B8B",
"z  c #8D8E8D",
"x  c #8E918E",
"c  c #939393",
"v  c #919491",
"b  c #949694",
"n  c #959695",
"m  c #989898",
"M  c #999A99",
"N  c #999B99",
"B  c #9B9D9A",
"V  c #9B9D9B",
"C  c #9C9D9C",
"Z  c #9C9E9C",
"A  c #9D9E9C",
"S  c #9C9F9C",
"D  c #9E9F9E",
"F  c #9FA09F",
"G  c #A0A2A0",
"H  c #A3A4A3",
"J  c #A4A5A4",
"K  c #A4A6A4",
"L  c #A6A8A6",
"P  c #A7A8A7",
"I  c #A8A9A8",
"U  c #A8AAA8",
"Y  c #A9ABA8",
"T  c #A9AAAA",
"R  c #AAAAAA",
"E  c #AAACAA",
"W  c #ABACAB",
"Q  c #ABADAB",
"!  c #ACADAC",
"~  c gray68",
"^  c #AEAFAE",
"/  c #ADB0AD",
"(  c #AEB0AE",
")  c #AFB0AF",
"_  c #B0B1B0",
"`  c #B0B2B0",
"'  c #B3B4B2",
"]  c #B3B4B3",
"[  c #B4B6B4",
"{  c #B5B7B5",
"}  c #B6B8B6",
"|  c #B7B8B7",
" . c #B8B9B8",
".. c #B9BAB9",
"X. c #BABBBA",
"o. c #BABCBA",
"O. c #BBBDBB",
"+. c #BCBDBC",
"@. c #BDBEBC",
"#. c #BDBEBD",
"$. c #C1C2C1",
"%. c #C3C4C4",
"&. c #C4C5C4",
"*. c #C4C6C4",
"=. c #C6C7C6",
"-. c #C7C9C7",
";. c #C8C9C8",
":. c #C8CAC8",
">. c #CACBCA",
",. c #CACCCA",
"<. c #CCCFCB",
"1. c #CDCECD",
"2. c #CDCFCD",
"3. c gray81",
"4. c #CFD0CF",
"5. c #D0D2CF",
"6. c #D0D2D0",
"7. c #D1D3D0",
"8. c #D1D2D1",
"9. c #D1D3D1",
"0. c #D2D3D2",
"q. c #D2D4D2",
"w. c #D3D4D3",
"e. c #D3D6D2",
"r. c #D3D6D3",
"t. c #D4D5D4",
"y. c #D5D6D5",
"u. c #D6D8D5",
"i. c #D6D8D6",
"p. c #D6D9D6",
"a. c #D7DAD7",
"s. c #D8D9D8",
"d. c #D9DAD9",
"f. c #DBDCDB",
"g. c #DBDDDB",
"h. c #DCDDDC",
"j. c #DCDFDC",
"k. c #DDDEDD",
"l. c #DDDFDD",
"z. c #DEE0DE",
"x. c gray88",
"c. c #E1E3E1",
"v. c #E2E4E2",
"b. c #E3E4E3",
"n. c #E4E4E4",
"m. c #E4E5E4",
"M. c #E5E6E5",
"N. c #E6E6E6",
"B. c #E7E9E6",
"V. c #E7E8E7",
"C. c #E7E9E7",
"Z. c #E8E9E8",
"A. c #E8EAE8",
"S. c #E9EAE8",
"D. c #EAEBEA",
"F. c #EBECEB",
"G. c #EBEDEB",
"H. c #ECEEEC",
"J. c #EDEFED",
"K. c #EEEFEE",
"L. c #EFF0EF",
"P. c #EFF1EF",
"I. c #F0F1F0",
"U. c #F0F2F0",
"Y. c #F0F3F0",
"T. c #F1F2F1",
"R. c #F2F3F2",
"E. c #F3F3F3",
"W. c #F2F4F2",
"Q. c #F3F5F2",
"!. c #F3F4F3",
"~. c #F3F5F3",
"^. c #F4F4F4",
"/. c #F4F5F4",
"(. c #F4F6F4",
"). c #F5F6F5",
"_. c #F5F7F5",
"`. c #F6F7F6",
"'. c #F6F8F6",
"]. c #F7F8F7",
"[. c #F7F9F7",
"{. c #F7F9F8",
"}. c #F8F8F8",
"|. c #F8F9F8",
" X c #F9F9F9",
".X c #F8FAF8",
"XX c #F9FAF9",
"oX c #F9FBF9",
"OX c gray98",
"+X c #FAFBFA",
"@X c #FBFAFB",
"#X c #FBFBFB",
"$X c #FAFCFA",
"%X c #FBFCFB",
"&X c #FBFDFB",
"*X c #FCFBFC",
"=X c gray99",
"-X c #FCFDFC",
";X c #FDFCFD",
":X c #FDFDFD",
">X c #FEFDFD",
",X c #FCFEFC",
"<X c #FCFEFD",
"1X c #FDFEFD",
"2X c #FDFFFD",
"3X c #FEFEFE",
"4X c #FEFFFE",
"5X c white",
"6X c None",
/* pixels */
"6X6X6X6X6X6X6X6X6X6X6X6X6X6X6X6X6X6X6X6X6X6X6X6X6X6X6X6X6X6X6X6X",
"6X6X6X6X6X6X6X6X6X6X6X6X6X6X6X6X6X6X6X6X6X6X6X6X6X6X6X6X6X6X6X6X",
"6X6X6X6X6X6X6X6X6X6X6X6Xs 8 2 7 2 3 8 r 6X6X6X6X6X6X6X6X6X6X6X6X",
"6X6X6X6X6X6X6X6X6X6Xu p $.u.>.8.8.1.i.-.c 6X6X6X6X6X6X6X6X6X6X6X",
"6X6X6X6X6X6X6X6X6Xl 9.q.L.5X4X5X5X5X5X/.k.x.6X6X6X6X6X6X6X6X6X6X",
"6X6X6X6X6X6X6X6Xa ;.|..XT.+X5X:X3X3X-X%X1X4XA.6X6X6X6X6X6X6X6X6X",
"6X6X6X6X6X6X6X% %.|.2X5X5X5X=X=X:X3X:X-X5X5X5Xk.v 6X6X6X6X6X6X6X",
"6X6X6X6X6X6X6X*.!.5X<Xb.i.L.5X#X:X3X5X].f.f.|.1Xs.Z 6X6X6X6X6X6X",
"6X6X6X6X6X6X~ L.|.3X|.Z O w.5X}.5X3X5XR.h & b.5XL.) 6X6X6X6X6X6X",
"6X6X6X6X6XV =.(.XX5X%Xf   2.5XE. X^.5XI.#   b.5X_.8.V 6X6X6X6X6X",
"6X6X6X6X6XB L.1X#X|.{.^ d f.5X5X5X5X5XE.F z m.,XXX].` X 6X6X6X6X",
"6XH C m h @.(.5XOXy.a.J.).|.!.Z.Z.V.R.%X`.I.j.7.H.`.:.t 6XA D 6X",
"5 ,.~.o._ R.XX5X+Xr.e.W.5X5X#.y L k ( 4X5X4Xc.<.A.|.R...' _.4.i ",
"@ >.4XT.!.5X3X3X%X[.`./.%X4X+.x p./ ^ %X#X XXX].XX:X5X_.L.5X0.6 ",
"9 0.W.T.+XXX;X1X%X4X5X5X1X-X|.q.g { _.1X#X1X4X5X4X-X5X1XL.~.t.w ",
"6XW | K 0.`.G.XXXXXX1X1X%X-X5X/.3.n.5X2X-X-X%X%X1XU.~.g.J O.! 6X",
"6X6X6X6Xn X.H.1X=X=X5X3X%XoX#X5X5X5X-X1X%XXX-X=X#XR.,.b 6X6X6X6X",
"6X6X6X6X6XG U.+X@X#X3X3X=X=X3X3XOX+X1X-X=X=X-X=X3X/.E . 6X6X6X6X",
"6X6X6X6X6X] '.:X-X+X1X3X=X%X-X:X#X-X,X-X-X:X%X-X3X|.$.o 6X6X6X6X",
"6X6X6X6X6X6XG. X#X-X1X:XOXOX:X3X-X1X1X:X=X:X-X-X].v.E 6X6X6X6X6X",
"6X6X6X6X6X6X) P.OX5X:X=X#X=X1X-X-X-X:X1X-X3X1X4X].O.6X6X6X6X6X6X",
"6X6X6X6X6X6X6XZ.].5X-X=X:X3X%XXX%X3X=X:X1X3X%X$XK.^ 6X6X6X6X6X6X",
"6X6X6X6X6X6X6XN D.5X3X3X=X-X=X=X1X:X=X:X:X5X4X).&.6X6X6X6X6X6X6X",
"6X6X6X6X6X6X6Xj h.XX;X3X:X&X:X5X-XoX#X>X=X3X%XA.( 6X6X6X6X6X6X6X",
"6X6X6X6X6X6X6X6XM F.+X-X3X=X3X5X-XXX+X-X=X5XB.Z 6X6X6X6X6X6X6X6X",
"6X6X6X6X6X6X6X6X6XI C.XX%X#X3X3X*X+X$XXX-X1X[.N.T 4 6X6X6X6X6X6X",
"6X6X6X6X6X6X6X6X6X6Xn z.(.!.=X+X-X%X-X1X1X-X1X4X|.v.S 6X6X6X6X6X",
"6X6X6X6X6X6X6X6X6X6X6XK } d.1X~.~.W.Q.(.Y.Y.W.(.5X5XM.R 6X6X6X6X",
"6X6X6X6X6X6X6X6X6X6X6X6X6XJ @.P Q Y E U L L E P Q l..XS. .e 6X6X",
"6X6X6X6X6X6X6X6X6X6X6X6X6X6X< ; 1 : , * - = > $ + ( 5.6.[ 6X6X6X",
"6X6X6X6X6X6X6X6X6X6X6X6X6X6X6X6X6X6X6X6X6X6X6X6X6X6Xq 0 6X6X6X6X",
"6X6X6X6X6X6X6X6X6X6X6X6X6X6X6X6X6X6X6X6X6X6X6X6X6X6X6X6X6X6X6X6X"
};
