/* XPM */
static char *ea5a2a5c85254737ec3efcd1244fcf1a4xVIYQAxMcpsjNKx[] = {
/* columns rows colors chars-per-pixel */
"32 32 4 1 ",
"  c None",
". c #3E734E",
"X c #7AB055",
"o c #4D9262",
/* pixels */
"                                ",
"                                ",
"                                ",
"                                ",
"                                ",
"                                ",
"             ......             ",
"            .XXXXXX.            ",
"           .XXXXXXXX.           ",
"          .XXXXXXXXXo.          ",
"          .XXXXXXXXo..          ",
"         .oXXXXooooo...         ",
"        .Xooooooo....o..        ",
"        .XXooooooooooo..        ",
"        .oXXXXXXXXXXoo...       ",
"       .ooXXXXXXXXXoo.....      ",
"      .XXoooXXXXXooo......      ",
"      .XXXooooooo....ooo..      ",
"      .XXXXoooooooooooooo..     ",
"      .oXXXXXoooooooXXXoo..     ",
"      .oXXXXXXoooXXXXXXXo..     ",
"     .X.oXXXXXXXXXXXXXXo....    ",
"     .XX.oooooXXXXXXooo.oo..    ",
"     .oXXo....ooooo....ooo..    ",
"     .ooXXoooo......ooooo..     ",
"      .ooooXXXXXXXXXXXoo...     ",
"       .o..oooooooooo.....      ",
"        .................       ",
"            .........           ",
"                                ",
"                                ",
"                                "
};
